<svg xmlns="http://www.w3.org/2000/svg" width="1600" height="900" viewBox="0 0 1600 900">

<defs>
  <linearGradient id="gradCheck" x1="0%" y1="100%" x2="100%" y2="0%">
    <stop offset="0%" stop-color="#6EA6E6"/>
    <stop offset="100%" stop-color="#11B5A6"/>
  </linearGradient>
  <linearGradient id="gradNavyBg" x1="0%" y1="0%" x2="100%" y2="100%">
    <stop offset="0%" stop-color="#071833"/>
    <stop offset="100%" stop-color="#0B1D3A"/>
  </linearGradient>
  <filter id="softShadow" x="-20%" y="-20%" width="140%" height="140%">
    <feDropShadow dx="0" dy="14" stdDeviation="18" flood-color="#09162A" flood-opacity="0.16"/>
  </filter>
  <filter id="cardShadow" x="-20%" y="-20%" width="140%" height="140%">
    <feDropShadow dx="0" dy="10" stdDeviation="16" flood-color="#0B1D3A" flood-opacity="0.10"/>
  </filter>
  
</defs>

<rect width="1600" height="900" fill="#F7FAFD"/>
<text x="60" y="80" font-family="Satoshi, Inter, Arial, Helvetica, sans-serif" font-size="46" font-weight="800" fill="#0B1D3A">TutoVera Brand Assets</text>
<text x="60" y="122" font-family="Inter, Arial, Helvetica, sans-serif" font-size="24" font-weight="500" fill="#6E7D95">Clean rebuild with crisp SVG + PNG exports.</text>
<rect x="60" y="170" width="620" height="220" rx="24" fill="white" stroke="#DFE7F2"/>

<g transform="translate(90,190) scale(0.42)">
  <text x="0" y="160" font-family="Satoshi, Inter, Arial, Helvetica, sans-serif" font-size="170" font-weight="800" fill="#0B1D3A" letter-spacing="-7">Tuto</text>
  
<g transform="translate(390,46) scale(1.45)">
  <path d="M22 74 C39 57, 58 66, 80 108 C104 84, 126 53, 162 16"
        fill="none" stroke="url(#gradCheck)" stroke-width="18" stroke-linecap="round" stroke-linejoin="round"/>
</g>

  <text x="560" y="160" font-family="Satoshi, Inter, Arial, Helvetica, sans-serif" font-size="170" font-weight="800" fill="#0B1D3A" letter-spacing="-7">era</text>
  <text x="640" y="255" text-anchor="middle" font-family="Inter, Arial, Helvetica, sans-serif" font-size="72" font-weight="600" fill="#6EA6E6">Solve. Understand. Improve.</text>
</g>

<rect x="720" y="170" width="220" height="220" rx="24" fill="white" stroke="#DFE7F2"/>
<g transform="translate(742,192) scale(0.18)">

<defs>
  <linearGradient id="gradCheck" x1="0%" y1="100%" x2="100%" y2="0%">
    <stop offset="0%" stop-color="#6EA6E6"/>
    <stop offset="100%" stop-color="#11B5A6"/>
  </linearGradient>
  <linearGradient id="gradNavyBg" x1="0%" y1="0%" x2="100%" y2="100%">
    <stop offset="0%" stop-color="#071833"/>
    <stop offset="100%" stop-color="#0B1D3A"/>
  </linearGradient>
  <filter id="softShadow" x="-20%" y="-20%" width="140%" height="140%">
    <feDropShadow dx="0" dy="14" stdDeviation="18" flood-color="#09162A" flood-opacity="0.16"/>
  </filter>
  <filter id="cardShadow" x="-20%" y="-20%" width="140%" height="140%">
    <feDropShadow dx="0" dy="10" stdDeviation="16" flood-color="#0B1D3A" flood-opacity="0.10"/>
  </filter>
  
</defs>

<rect width="1024" height="1024" fill="transparent"/>
<g filter="url(#softShadow)"><rect x="56" y="56" width="912" height="912" rx="180" fill="url(#gradNavyBg)"/></g>

<g transform="translate(215,248) scale(3.65)">
  <path d="M22 74 C39 57, 58 66, 80 108 C104 84, 126 53, 162 16"
        fill="none" stroke="url(#gradCheck)" stroke-width="18" stroke-linecap="round" stroke-linejoin="round"/>
</g>


<g transform="translate(208,605) scale(2.55)">
  <path d="M18 78 C34 62, 72 60, 98 72 L118 88 L8 88 Z" fill="#6EA6E6" opacity="0.95"/>
  <path d="M222 78 C206 62, 168 60, 142 72 L122 88 L232 88 Z" fill="#6EA6E6" opacity="0.95"/>
  <path d="M24 64 C45 46, 77 45, 102 57 L120 80 L20 80 Z" fill="#FFFFFF" stroke="#AAB8CC" stroke-width="3"/>
  <path d="M216 64 C195 46, 163 45, 138 57 L120 80 L220 80 Z" fill="#FFFFFF" stroke="#AAB8CC" stroke-width="3"/>
  <path d="M120 86 L74 70" stroke="#6F7F98" stroke-width="3" opacity="0.55"/>
  <path d="M120 86 L166 70" stroke="#6F7F98" stroke-width="3" opacity="0.55"/>
  <path d="M16 81 C45 80, 79 80, 108 83 L120 94 L132 83 C161 80, 195 80, 224 81" fill="none" stroke="#FF8A3D" stroke-width="8" stroke-linecap="round" stroke-linejoin="round"/>
</g>

</g>
<rect x="980" y="170" width="560" height="220" rx="24" fill="white" stroke="#DFE7F2"/>

<g transform="translate(1015,235) scale(1.3)">
  <path d="M22 74 C39 57, 58 66, 80 108 C104 84, 126 53, 162 16"
        fill="none" stroke="url(#gradCheck)" stroke-width="18" stroke-linecap="round" stroke-linejoin="round"/>
</g>

<line x1="1170" y1="212" x2="1170" y2="352" stroke="#B7C5D9" stroke-width="3"/>
<text x="1210" y="280" font-family="Satoshi, Inter, Arial, Helvetica, sans-serif" font-size="70" font-weight="800" fill="#0B1D3A">Tuto</text>

<g transform="translate(1380,228) scale(0.58)">
  <path d="M22 74 C39 57, 58 66, 80 108 C104 84, 126 53, 162 16"
        fill="none" stroke="url(#gradCheck)" stroke-width="18" stroke-linecap="round" stroke-linejoin="round"/>
</g>

<text x="1450" y="280" font-family="Satoshi, Inter, Arial, Helvetica, sans-serif" font-size="70" font-weight="800" fill="#0B1D3A">era</text>
<text x="1210" y="330" font-family="Inter, Arial, Helvetica, sans-serif" font-size="30" font-weight="600" fill="#6EA6E6">Solve. Understand. Improve.</text>
<image href="tutovera-color-palette.png" x="60" y="430" width="1480" height="340" preserveAspectRatio="xMidYMid meet"/>
</svg>